<?xml version="1.0" encoding="UTF-8" standalone="no"?><svg xmlns="http://www.w3.org/2000/svg" xmlns:xlink="http://www.w3.org/1999/xlink" contentScriptType="application/ecmascript" contentStyleType="text/css" height="222px" preserveAspectRatio="none" style="width:323px;height:222px;background:#FFFFFF;" version="1.1" viewBox="0 0 323 222" width="323px" zoomAndPan="magnify"><defs><filter height="300%" id="f6d0p0yrl7tlg" width="300%" x="-1" y="-1"><feGaussianBlur result="blurOut" stdDeviation="2.0"/><feColorMatrix in="blurOut" result="blurOut2" type="matrix" values="0 0 0 0 0 0 0 0 0 0 0 0 0 0 0 0 0 0 .4 0"/><feOffset dx="4.0" dy="4.0" in="blurOut2" result="blurOut3"/><feBlend in="SourceGraphic" in2="blurOut3" mode="normal"/></filter></defs><g><!--MD5=[71ad686af23542bad9f3572cac50e4c5]
class Farola--><rect codeLine="1" fill="#FEFECE" filter="url(#f6d0p0yrl7tlg)" height="201.6563" id="Farola" style="stroke:#A80036;stroke-width:1.5;" width="302" x="7" y="7"/><ellipse cx="135.25" cy="23" fill="#ADD1B2" rx="11" ry="11" style="stroke:#A80036;stroke-width:1.0;"/><path d="M137.5938,18.6719 C136.6563,18.2344 136.0625,18.0938 135.1875,18.0938 C132.5625,18.0938 130.5625,20.1719 130.5625,22.8906 L130.5625,24.0156 C130.5625,26.5938 132.6719,28.4844 135.5625,28.4844 C136.7813,28.4844 137.9375,28.1875 138.6875,27.6406 C139.2656,27.2344 139.5938,26.7813 139.5938,26.3906 C139.5938,25.9375 139.2031,25.5469 138.7344,25.5469 C138.5156,25.5469 138.3125,25.625 138.125,25.8125 C137.6719,26.2969 137.6719,26.2969 137.4844,26.3906 C137.0625,26.6563 136.375,26.7813 135.6094,26.7813 C133.5625,26.7813 132.2656,25.6875 132.2656,23.9844 L132.2656,22.8906 C132.2656,21.1094 133.5156,19.7969 135.25,19.7969 C135.8281,19.7969 136.4375,19.9531 136.9063,20.2031 C137.3906,20.4844 137.5625,20.7031 137.6563,21.1094 C137.7188,21.5156 137.75,21.6406 137.8906,21.7656 C138.0313,21.9063 138.2656,22.0156 138.4844,22.0156 C138.75,22.0156 139.0156,21.875 139.1875,21.6563 C139.2969,21.5 139.3281,21.3125 139.3281,20.8906 L139.3281,19.4688 C139.3281,19.0313 139.3125,18.9063 139.2188,18.75 C139.0625,18.4844 138.7813,18.3438 138.4844,18.3438 C138.1875,18.3438 137.9844,18.4375 137.7656,18.75 L137.5938,18.6719 Z " fill="#000000"/><text fill="#000000" font-family="sans-serif" font-size="12" lengthAdjust="spacing" textLength="37" x="155.75" y="27.1543">Farola</text><line style="stroke:#A80036;stroke-width:1.5;" x1="8" x2="308" y1="39" y2="39"/><rect fill="none" height="6" style="stroke:#C82930;stroke-width:1.0;" width="6" x="15" y="47"/><text fill="#000000" font-family="sans-serif" font-size="11" lengthAdjust="spacing" textLength="89" x="27" y="53.2104">boolean estado</text><rect fill="none" height="6" style="stroke:#C82930;stroke-width:1.0;" width="6" x="15" y="59.8047"/><text fill="#000000" font-family="sans-serif" font-size="11" lengthAdjust="spacing" textLength="113" x="27" y="66.0151">List&lt;Farola&gt; farolas</text><line style="stroke:#A80036;stroke-width:1.5;" x1="8" x2="308" y1="72.6094" y2="72.6094"/><ellipse cx="18" cy="83.6094" fill="#84BE84" rx="3" ry="3" style="stroke:#038048;stroke-width:1.0;"/><text fill="#000000" font-family="sans-serif" font-size="11" lengthAdjust="spacing" textLength="99" x="27" y="86.8198">«Create» Farola()</text><ellipse cx="18" cy="96.4141" fill="#84BE84" rx="3" ry="3" style="stroke:#038048;stroke-width:1.0;"/><text fill="#000000" font-family="sans-serif" font-size="11" lengthAdjust="spacing" textLength="198" x="27" y="99.6245">pairWithNeighbor(otraFarola:Farola)</text><ellipse cx="18" cy="109.2188" fill="#84BE84" rx="3" ry="3" style="stroke:#038048;stroke-width:1.0;"/><text fill="#000000" font-family="sans-serif" font-size="11" lengthAdjust="spacing" textLength="158" x="27" y="112.4292">getNeighbots():List&lt;Farola&gt;</text><ellipse cx="18" cy="122.0234" fill="#84BE84" rx="3" ry="3" style="stroke:#038048;stroke-width:1.0;"/><text fill="#000000" font-family="sans-serif" font-size="11" lengthAdjust="spacing" textLength="82" x="27" y="125.2339">isOn():boolean</text><ellipse cx="18" cy="134.8281" fill="#84BE84" rx="3" ry="3" style="stroke:#038048;stroke-width:1.0;"/><text fill="#000000" font-family="sans-serif" font-size="11" lengthAdjust="spacing" textLength="46" x="27" y="138.0386">turnOn()</text><ellipse cx="18" cy="147.6328" fill="#84BE84" rx="3" ry="3" style="stroke:#038048;stroke-width:1.0;"/><text fill="#000000" font-family="sans-serif" font-size="11" lengthAdjust="spacing" textLength="47" x="27" y="150.8433">turnOff()</text><rect fill="#F24D5C" height="6" style="stroke:#C82930;stroke-width:1.0;" width="6" x="15" y="157.4375"/><text fill="#000000" font-family="sans-serif" font-size="11" lengthAdjust="spacing" textLength="173" x="27" y="163.6479">addNeighbor(otraFarola:Farola)</text><rect fill="#F24D5C" height="6" style="stroke:#C82930;stroke-width:1.0;" width="6" x="15" y="170.2422"/><text fill="#000000" font-family="sans-serif" font-size="11" lengthAdjust="spacing" textLength="152" x="27" y="176.4526">setEstado(estado:boolean)</text><rect fill="#F24D5C" height="6" style="stroke:#C82930;stroke-width:1.0;" width="6" x="15" y="183.0469"/><text fill="#000000" font-family="sans-serif" font-size="11" lengthAdjust="spacing" textLength="276" x="27" y="189.2573">changeState(nuevoEstado:boolean,farola:Farola)</text><rect fill="#F24D5C" height="6" style="stroke:#C82930;stroke-width:1.0;" width="6" x="15" y="195.8516"/><text fill="#000000" font-family="sans-serif" font-size="11" lengthAdjust="spacing" textLength="153" x="27" y="202.062">turn(nuevoEstado:boolean)</text><!--MD5=[8c0a44fa2186ca0efbb2bfd48d9d26d6]
@startuml
class Farola {
  -boolean estado
  -List<Farola> farolas
  
  +<<Create>> Farola()
  +pairWithNeighbor(otraFarola:Farola)
  +getNeighbots():List<Farola>
  +isOn():boolean
  +turnOn()
  +turnOff()
  -addNeighbor(otraFarola:Farola)
  -setEstado(estado:boolean)
  -changeState(nuevoEstado:boolean,farola:Farola)
  -turn(nuevoEstado:boolean)
}
@enduml

PlantUML version 1.2021.11beta2(Unknown compile time)
(GPL source distribution)
Java Runtime: Java(TM) SE Runtime Environment
JVM: Java HotSpot(TM) 64-Bit Server VM
Default Encoding: UTF-8
Language: en
Country: US
--></g></svg>