<?xml version="1.0" encoding="UTF-8" standalone="no"?><svg xmlns="http://www.w3.org/2000/svg" xmlns:xlink="http://www.w3.org/1999/xlink" contentScriptType="application/ecmascript" contentStyleType="text/css" height="312px" preserveAspectRatio="none" style="width:348px;height:312px;background:#FFFFFF;" version="1.1" viewBox="0 0 348 312" width="348px" zoomAndPan="magnify"><defs><filter height="300%" id="f5bs42ps7efmz" width="300%" x="-1" y="-1"><feGaussianBlur result="blurOut" stdDeviation="2.0"/><feColorMatrix in="blurOut" result="blurOut2" type="matrix" values="0 0 0 0 0 0 0 0 0 0 0 0 0 0 0 0 0 0 .4 0"/><feOffset dx="4.0" dy="4.0" in="blurOut2" result="blurOut3"/><feBlend in="SourceGraphic" in2="blurOut3" mode="normal"/></filter></defs><g><!--MD5=[aff45eb4290a2482526ee12be32a2908]
class Mamifero--><rect codeLine="1" fill="#FEFECE" filter="url(#f5bs42ps7efmz)" height="291.2891" id="Mamifero" style="stroke:#A80036;stroke-width:1.5;" width="327" x="7" y="7"/><ellipse cx="138.25" cy="23" fill="#ADD1B2" rx="11" ry="11" style="stroke:#A80036;stroke-width:1.0;"/><path d="M140.5938,18.6719 C139.6563,18.2344 139.0625,18.0938 138.1875,18.0938 C135.5625,18.0938 133.5625,20.1719 133.5625,22.8906 L133.5625,24.0156 C133.5625,26.5938 135.6719,28.4844 138.5625,28.4844 C139.7813,28.4844 140.9375,28.1875 141.6875,27.6406 C142.2656,27.2344 142.5938,26.7813 142.5938,26.3906 C142.5938,25.9375 142.2031,25.5469 141.7344,25.5469 C141.5156,25.5469 141.3125,25.625 141.125,25.8125 C140.6719,26.2969 140.6719,26.2969 140.4844,26.3906 C140.0625,26.6563 139.375,26.7813 138.6094,26.7813 C136.5625,26.7813 135.2656,25.6875 135.2656,23.9844 L135.2656,22.8906 C135.2656,21.1094 136.5156,19.7969 138.25,19.7969 C138.8281,19.7969 139.4375,19.9531 139.9063,20.2031 C140.3906,20.4844 140.5625,20.7031 140.6563,21.1094 C140.7188,21.5156 140.75,21.6406 140.8906,21.7656 C141.0313,21.9063 141.2656,22.0156 141.4844,22.0156 C141.75,22.0156 142.0156,21.875 142.1875,21.6563 C142.2969,21.5 142.3281,21.3125 142.3281,20.8906 L142.3281,19.4688 C142.3281,19.0313 142.3125,18.9063 142.2188,18.75 C142.0625,18.4844 141.7813,18.3438 141.4844,18.3438 C141.1875,18.3438 140.9844,18.4375 140.7656,18.75 L140.5938,18.6719 Z " fill="#000000"/><text fill="#000000" font-family="sans-serif" font-size="12" lengthAdjust="spacing" textLength="56" x="158.75" y="27.1543">Mamifero</text><line style="stroke:#A80036;stroke-width:1.5;" x1="8" x2="333" y1="39" y2="39"/><rect fill="none" height="6" style="stroke:#C82930;stroke-width:1.0;" width="6" x="15" y="47"/><text fill="#000000" font-family="sans-serif" font-size="11" lengthAdjust="spacing" textLength="107" x="27" y="53.2104">String identificador</text><rect fill="none" height="6" style="stroke:#C82930;stroke-width:1.0;" width="6" x="15" y="59.8047"/><text fill="#000000" font-family="sans-serif" font-size="11" lengthAdjust="spacing" textLength="83" x="27" y="66.0151">String especie</text><rect fill="none" height="6" style="stroke:#C82930;stroke-width:1.0;" width="6" x="15" y="72.6094"/><text fill="#000000" font-family="sans-serif" font-size="11" lengthAdjust="spacing" textLength="157" x="27" y="78.8198">LocalDate fechaNacimiento</text><line style="stroke:#A80036;stroke-width:1.5;" x1="8" x2="333" y1="85.4141" y2="85.4141"/><ellipse cx="18" cy="96.4141" fill="#84BE84" rx="3" ry="3" style="stroke:#038048;stroke-width:1.0;"/><text fill="#000000" font-family="sans-serif" font-size="11" lengthAdjust="spacing" textLength="206" x="27" y="99.6245">&lt;Create&gt; Mamifero (nombre:String)</text><ellipse cx="18" cy="109.2188" fill="#84BE84" rx="3" ry="3" style="stroke:#038048;stroke-width:1.0;"/><text fill="#000000" font-family="sans-serif" font-size="11" lengthAdjust="spacing" textLength="133" x="27" y="112.4292">getIdentificador():String</text><ellipse cx="18" cy="122.0234" fill="#84BE84" rx="3" ry="3" style="stroke:#038048;stroke-width:1.0;"/><text fill="#000000" font-family="sans-serif" font-size="11" lengthAdjust="spacing" textLength="142" x="27" y="125.2339">setIdentificador(id:String)</text><ellipse cx="18" cy="134.8281" fill="#84BE84" rx="3" ry="3" style="stroke:#038048;stroke-width:1.0;"/><text fill="#000000" font-family="sans-serif" font-size="11" lengthAdjust="spacing" textLength="108" x="27" y="138.0386">getEspecie():String</text><ellipse cx="18" cy="147.6328" fill="#84BE84" rx="3" ry="3" style="stroke:#038048;stroke-width:1.0;"/><text fill="#000000" font-family="sans-serif" font-size="11" lengthAdjust="spacing" textLength="153" x="27" y="150.8433">setEspecie(especie:String)</text><ellipse cx="18" cy="160.4375" fill="#84BE84" rx="3" ry="3" style="stroke:#038048;stroke-width:1.0;"/><text fill="#000000" font-family="sans-serif" font-size="11" lengthAdjust="spacing" textLength="185" x="27" y="163.6479">getFechaNacimiento():LocalDate</text><ellipse cx="18" cy="173.2422" fill="#84BE84" rx="3" ry="3" style="stroke:#038048;stroke-width:1.0;"/><text fill="#000000" font-family="sans-serif" font-size="11" lengthAdjust="spacing" textLength="216" x="27" y="176.4526">setFechaNacimiento(fecha:LocalDate)</text><ellipse cx="18" cy="186.0469" fill="#84BE84" rx="3" ry="3" style="stroke:#038048;stroke-width:1.0;"/><text fill="#000000" font-family="sans-serif" font-size="11" lengthAdjust="spacing" textLength="115" x="27" y="189.2573">getPadre():Mamifero</text><ellipse cx="18" cy="198.8516" fill="#84BE84" rx="3" ry="3" style="stroke:#038048;stroke-width:1.0;"/><text fill="#000000" font-family="sans-serif" font-size="11" lengthAdjust="spacing" textLength="147" x="27" y="202.062">setPadre(padre:Mamifero)</text><ellipse cx="18" cy="211.6563" fill="#84BE84" rx="3" ry="3" style="stroke:#038048;stroke-width:1.0;"/><text fill="#000000" font-family="sans-serif" font-size="11" lengthAdjust="spacing" textLength="118" x="27" y="214.8667">getMadre():Mamifero</text><ellipse cx="18" cy="224.4609" fill="#84BE84" rx="3" ry="3" style="stroke:#038048;stroke-width:1.0;"/><text fill="#000000" font-family="sans-serif" font-size="11" lengthAdjust="spacing" textLength="154" x="27" y="227.6714">setMadre(madre:Mamifero)</text><ellipse cx="18" cy="237.2656" fill="#84BE84" rx="3" ry="3" style="stroke:#038048;stroke-width:1.0;"/><text fill="#000000" font-family="sans-serif" font-size="11" lengthAdjust="spacing" textLength="169" x="27" y="240.4761">getAbueloMaterno():Mamifero</text><ellipse cx="18" cy="250.0703" fill="#84BE84" rx="3" ry="3" style="stroke:#038048;stroke-width:1.0;"/><text fill="#000000" font-family="sans-serif" font-size="11" lengthAdjust="spacing" textLength="169" x="27" y="253.2808">getAbuelaMaterna():Mamifero</text><ellipse cx="18" cy="262.875" fill="#84BE84" rx="3" ry="3" style="stroke:#038048;stroke-width:1.0;"/><text fill="#000000" font-family="sans-serif" font-size="11" lengthAdjust="spacing" textLength="166" x="27" y="266.0854">getAbueloPaterno():Mamifero</text><ellipse cx="18" cy="275.6797" fill="#84BE84" rx="3" ry="3" style="stroke:#038048;stroke-width:1.0;"/><text fill="#000000" font-family="sans-serif" font-size="11" lengthAdjust="spacing" textLength="166" x="27" y="278.8901">getAbuelaPaterno():Mamifero</text><ellipse cx="18" cy="288.4844" fill="#84BE84" rx="3" ry="3" style="stroke:#038048;stroke-width:1.0;"/><text fill="#000000" font-family="sans-serif" font-size="11" lengthAdjust="spacing" textLength="301" x="27" y="291.6948">tieneComoAncestroA(unMamifero:Mamifero):boolean</text><!--MD5=[81558df7198d6279067117d3b9d6b436]
@startuml
class Mamifero {
  -String identificador
  -String especie
  -LocalDate fechaNacimiento
  
  +<Create> Mamifero (nombre:String)
  +getIdentificador():String
  +setIdentificador(id:String)
  +getEspecie():String
  +setEspecie(especie:String)
  +getFechaNacimiento():LocalDate
  +setFechaNacimiento(fecha:LocalDate)
  +getPadre():Mamifero
  +setPadre(padre:Mamifero)
  +getMadre():Mamifero
  +setMadre(madre:Mamifero)
  +getAbueloMaterno():Mamifero
  +getAbuelaMaterna():Mamifero
  +getAbueloPaterno():Mamifero
  +getAbuelaPaterno():Mamifero
  +tieneComoAncestroA(unMamifero:Mamifero):boolean
  
}
@enduml

PlantUML version 1.2021.11beta2(Unknown compile time)
(GPL source distribution)
Java Runtime: Java(TM) SE Runtime Environment
JVM: Java HotSpot(TM) 64-Bit Server VM
Default Encoding: UTF-8
Language: en
Country: US
--></g></svg>